<?xml version='1.0' encoding='utf-8'?>
<svg xmlns="http://www.w3.org/2000/svg" width="1133.9px" height="1133.9px" enable-background="new -515.475 -507.828 1133.858 1133.858" version="1.1" viewBox="-515.48 -507.83 1133.9 1133.9"> <path d="m50.279-159.64c-16.787 0-33.136 1.902-48.851 5.489-96.746 22.689-169 109.69-169 213.26 0 120.77 98.255 219.03 219.03 219.03 60.286 0 114.96-24.484 154.6-64.029 32.317-32.615 54.488-75.29 61.354-122.85l0.727-0.149c1.536-10.448 2.344-21.131 2.344-31.999 0-10.452-0.753-20.731-2.176-30.797l-0.918-0.195c-8.166-56.263-37.754-105.67-80.205-139.66l0.294-0.886c-16.359-12.999-34.613-23.708-54.273-31.646l-0.481 0.535c-25.469-10.364-53.298-16.09-82.444-16.09z" fill="#F9B233"/> <path d="m-42.751 314.84 95.804 239.84 96.466-242.29c-30.77 12.133-64.221 18.867-99.24 18.867-32.67 0.017-64-5.786-93.03-16.423z" fill="#F9B233"/> <path d="m-132.64 375.9 73.325-81.404c-13.542-6.383-26.547-13.959-38.883-22.678l-34.442 104.08z" fill="#F9B233"/> <path d="m-217.88 102.31-154.24 197.78 249.01-31.593c-49.569-41.23-84.259-99.732-94.769-166.19z" fill="#F9B233"/> <path d="m-207.54 35.84-107.42 22.223 107.3 22.829c-0.594-7.21-0.913-14.476-0.913-21.792 0-7.813 0.361-15.569 1.038-23.26z" fill="#F9B233"/> <path d="m-116.08-154.61-257.66-40.891 157.25 204.96c12.471-66.315 49.111-124.16 100.41-164.07z" fill="#F9B233"/> <path d="m-130.86-258.74 33.864 104.29c12.385-8.647 25.435-16.148 39.017-22.456l-72.881-81.832z" fill="#F9B233"/> <path d="m146.71-194-96.873-242.48-96.627 242.72c30.167-11.58 62.871-18.002 97.068-18.002 33.951-8e-3 66.442 6.321 96.432 17.765z" fill="#F9B233"/> <path d="m235.55-257.72-73.332 81.417c13.543 6.383 26.549 13.959 38.886 22.678l34.446-104.1z" fill="#F9B233"/> <path d="m318.68 18.585 156.35-200.47-252.4 31.992c50.476 41.577 85.743 100.98 96.049 168.48z" fill="#F9B233"/> <path d="m310.44 82.347 107.42-22.223-107.3-22.83c0.596 7.214 0.914 14.485 0.914 21.805 0 7.81-0.36 15.562-1.037 23.248z" fill="#F9B233"/> <path d="m218.42 272.71 258.23 40.976-158.97-207.18c-11.673 67.019-47.99 125.64-99.257 166.21z" fill="#F9B233"/> <path d="m199.91 272.65c-12.386 8.649-25.437 16.151-39.02 22.46l72.883 81.83-33.863-104.29z" fill="#F9B233"/> </svg>